<?xml version="1.0" encoding="UTF-8" standalone="no"?>
<svg
   xmlns:dc="http://purl.org/dc/elements/1.1/"
   xmlns:cc="http://creativecommons.org/ns#"
   xmlns:rdf="http://www.w3.org/1999/02/22-rdf-syntax-ns#"
   xmlns:svg="http://www.w3.org/2000/svg"
   xmlns="http://www.w3.org/2000/svg"
   xmlns:sodipodi="http://sodipodi.sourceforge.net/DTD/sodipodi-0.dtd"
   xmlns:inkscape="http://www.inkscape.org/namespaces/inkscape"
   version="1.1"
   viewBox="0 0 99.015811 38.17085"
   height="144.26778"
   width="366.67395"
   id="svg841"
   sodipodi:docname="logo.svg"
   inkscape:version="0.92.4 (5da689c313, 2019-01-14)">
  <metadata
     id="metadata847">
    <rdf:RDF>
      <cc:Work
         rdf:about="">
        <dc:format>image/svg+xml</dc:format>
        <dc:type
           rdf:resource="http://purl.org/dc/dcmitype/StillImage" />
      </cc:Work>
    </rdf:RDF>
  </metadata>
  <defs
     id="defs845">
    <inkscape:path-effect
       effect="simplify"
       id="path-effect1159"
       is_visible="true"
       steps="1"
       threshold="0.5"
       smooth_angles="360"
       helper_size="0"
       simplify_individual_paths="false"
       simplify_just_coalesce="false"
       simplifyindividualpaths="false"
       simplifyJustCoalesce="false" />
    <inkscape:path-effect
       effect="simplify"
       id="path-effect1155"
       is_visible="true"
       steps="1"
       threshold="0.5"
       smooth_angles="360"
       helper_size="0"
       simplify_individual_paths="false"
       simplify_just_coalesce="false"
       simplifyindividualpaths="false"
       simplifyJustCoalesce="false" />
    <inkscape:path-effect
       effect="simplify"
       id="path-effect1151"
       is_visible="true"
       steps="1"
       threshold="0.5"
       smooth_angles="360"
       helper_size="0"
       simplify_individual_paths="false"
       simplify_just_coalesce="false"
       simplifyindividualpaths="false"
       simplifyJustCoalesce="false" />
    <inkscape:path-effect
       effect="simplify"
       id="path-effect1147"
       is_visible="true"
       steps="1"
       threshold="0.5"
       smooth_angles="360"
       helper_size="0"
       simplify_individual_paths="false"
       simplify_just_coalesce="false"
       simplifyindividualpaths="false"
       simplifyJustCoalesce="false" />
    <inkscape:path-effect
       effect="simplify"
       id="path-effect1143"
       is_visible="true"
       steps="1"
       threshold="0.5"
       smooth_angles="360"
       helper_size="0"
       simplify_individual_paths="false"
       simplify_just_coalesce="false"
       simplifyindividualpaths="false"
       simplifyJustCoalesce="false" />
    <inkscape:path-effect
       effect="simplify"
       id="path-effect1139"
       is_visible="true"
       steps="1"
       threshold="0.5"
       smooth_angles="360"
       helper_size="0"
       simplify_individual_paths="false"
       simplify_just_coalesce="false"
       simplifyindividualpaths="false"
       simplifyJustCoalesce="false" />
    <inkscape:path-effect
       effect="simplify"
       id="path-effect1135"
       is_visible="true"
       steps="1"
       threshold="0.5"
       smooth_angles="360"
       helper_size="0"
       simplify_individual_paths="false"
       simplify_just_coalesce="false"
       simplifyindividualpaths="false"
       simplifyJustCoalesce="false" />
    <inkscape:path-effect
       effect="simplify"
       id="path-effect1131"
       is_visible="true"
       steps="1"
       threshold="0.5"
       smooth_angles="360"
       helper_size="0"
       simplify_individual_paths="false"
       simplify_just_coalesce="false"
       simplifyindividualpaths="false"
       simplifyJustCoalesce="false" />
    <inkscape:path-effect
       effect="simplify"
       id="path-effect1127"
       is_visible="true"
       steps="1"
       threshold="0.5"
       smooth_angles="360"
       helper_size="0"
       simplify_individual_paths="false"
       simplify_just_coalesce="false"
       simplifyindividualpaths="false"
       simplifyJustCoalesce="false" />
    <inkscape:path-effect
       effect="simplify"
       id="path-effect1123"
       is_visible="true"
       steps="1"
       threshold="0.5"
       smooth_angles="360"
       helper_size="0"
       simplify_individual_paths="false"
       simplify_just_coalesce="false"
       simplifyindividualpaths="false"
       simplifyJustCoalesce="false" />
    <inkscape:path-effect
       effect="simplify"
       id="path-effect1119"
       is_visible="true"
       steps="1"
       threshold="0.5"
       smooth_angles="360"
       helper_size="0"
       simplify_individual_paths="false"
       simplify_just_coalesce="false"
       simplifyindividualpaths="false"
       simplifyJustCoalesce="false" />
    <inkscape:path-effect
       effect="simplify"
       id="path-effect1115"
       is_visible="true"
       steps="1"
       threshold="0.5"
       smooth_angles="360"
       helper_size="0"
       simplify_individual_paths="false"
       simplify_just_coalesce="false"
       simplifyindividualpaths="false"
       simplifyJustCoalesce="false" />
    <inkscape:path-effect
       effect="simplify"
       id="path-effect1111"
       is_visible="true"
       steps="1"
       threshold="0.5"
       smooth_angles="360"
       helper_size="0"
       simplify_individual_paths="false"
       simplify_just_coalesce="false"
       simplifyindividualpaths="false"
       simplifyJustCoalesce="false" />
    <inkscape:path-effect
       effect="simplify"
       id="path-effect1107"
       is_visible="true"
       steps="1"
       threshold="0.5"
       smooth_angles="360"
       helper_size="0"
       simplify_individual_paths="false"
       simplify_just_coalesce="false"
       simplifyindividualpaths="false"
       simplifyJustCoalesce="false" />
    <inkscape:path-effect
       effect="simplify"
       id="path-effect1103"
       is_visible="true"
       steps="1"
       threshold="0.5"
       smooth_angles="360"
       helper_size="0"
       simplify_individual_paths="false"
       simplify_just_coalesce="false"
       simplifyindividualpaths="false"
       simplifyJustCoalesce="false" />
    <inkscape:path-effect
       effect="simplify"
       id="path-effect1099"
       is_visible="true"
       steps="1"
       threshold="0.5"
       smooth_angles="360"
       helper_size="0"
       simplify_individual_paths="false"
       simplify_just_coalesce="false"
       simplifyindividualpaths="false"
       simplifyJustCoalesce="false" />
    <inkscape:path-effect
       effect="simplify"
       id="path-effect1095"
       is_visible="true"
       steps="1"
       threshold="0.5"
       smooth_angles="360"
       helper_size="0"
       simplify_individual_paths="false"
       simplify_just_coalesce="false"
       simplifyindividualpaths="false"
       simplifyJustCoalesce="false" />
    <inkscape:path-effect
       effect="simplify"
       id="path-effect1091"
       is_visible="true"
       steps="1"
       threshold="0.5"
       smooth_angles="360"
       helper_size="0"
       simplify_individual_paths="false"
       simplify_just_coalesce="false"
       simplifyindividualpaths="false"
       simplifyJustCoalesce="false" />
    <inkscape:path-effect
       effect="simplify"
       id="path-effect1087"
       is_visible="true"
       steps="1"
       threshold="0.5"
       smooth_angles="360"
       helper_size="0"
       simplify_individual_paths="false"
       simplify_just_coalesce="false"
       simplifyindividualpaths="false"
       simplifyJustCoalesce="false" />
    <inkscape:path-effect
       effect="simplify"
       id="path-effect1079"
       is_visible="true"
       steps="1"
       threshold="0.5"
       smooth_angles="360"
       helper_size="0"
       simplify_individual_paths="false"
       simplify_just_coalesce="false"
       simplifyindividualpaths="false"
       simplifyJustCoalesce="false" />
    <inkscape:path-effect
       effect="simplify"
       id="path-effect1075"
       is_visible="true"
       steps="1"
       threshold="0.5"
       smooth_angles="360"
       helper_size="0"
       simplify_individual_paths="false"
       simplify_just_coalesce="false"
       simplifyindividualpaths="false"
       simplifyJustCoalesce="false" />
    <inkscape:path-effect
       effect="simplify"
       id="path-effect1071"
       is_visible="true"
       steps="1"
       threshold="0.5"
       smooth_angles="360"
       helper_size="0"
       simplify_individual_paths="false"
       simplify_just_coalesce="false"
       simplifyindividualpaths="false"
       simplifyJustCoalesce="false" />
    <inkscape:path-effect
       effect="simplify"
       id="path-effect1067"
       is_visible="true"
       steps="1"
       threshold="0.5"
       smooth_angles="360"
       helper_size="0"
       simplify_individual_paths="false"
       simplify_just_coalesce="false"
       simplifyindividualpaths="false"
       simplifyJustCoalesce="false" />
  </defs>
  <sodipodi:namedview
     pagecolor="#ffffff"
     bordercolor="#666666"
     borderopacity="1"
     objecttolerance="10"
     gridtolerance="10"
     guidetolerance="10"
     inkscape:pageopacity="0"
     inkscape:pageshadow="2"
     inkscape:window-width="1920"
     inkscape:window-height="1032"
     id="namedview843"
     showgrid="false"
     inkscape:zoom="1.7467835"
     inkscape:cx="109.80972"
     inkscape:cy="54.343372"
     inkscape:window-x="0"
     inkscape:window-y="48"
     inkscape:window-maximized="0"
     inkscape:current-layer="svg841" />
  <g
     transform="matrix(0.3074523,0,0,0.3074523,58.406158,-52.940869)"
     id="layer1">
    <g
       transform="translate(2)"
       id="g835">
      <path
         id="path2"
         d="m 100.56282,289.88176 c 0.26617,-0.22181 0.66543,-0.53235 1.19775,-0.48799 0.53231,0.0444 1.73008,0.13309 2.17374,0.0444 0.44368,-0.0887 0.79853,0.0444 0.93161,-0.31053 0.13308,-0.3549 0.17744,-1.50836 0.53234,-1.95192 0.35489,-0.44357 1.33091,-0.9316 1.46396,-1.37518 0.13307,-0.4436 0.17745,-0.62109 0,-1.06469 -0.17745,-0.44361 -0.57671,-0.84288 -1.15345,-1.10907 -0.57676,-0.2662 -1.10907,-0.44362 -1.10907,-0.44362 0,0 -1.15346,1.06468 -1.19774,1.33091 -0.0443,0.26622 0.0887,0.53234 -0.17745,0.66543 -0.26617,0.13309 -0.70979,-0.26618 -0.79852,-0.97597 -0.0887,-0.7098 0.22181,-1.55264 0.17744,-2.04069 -0.0444,-0.48806 -0.35489,-0.93161 -0.0887,-1.41958 0.26617,-0.48798 0.88725,-1.24213 1.37519,-1.59703 0.48794,-0.35489 1.33091,-0.39925 1.46396,-0.84287 0.13306,-0.44361 -0.84287,-2.12936 -0.84287,-2.52865 0,-0.39927 0.13309,-1.15345 -0.17745,-1.77447 -0.31054,-0.62101 -0.66544,-1.95191 -1.99631,-2.79476 -1.33087,-0.84285 -2.26242,-1.19775 -2.484255,-1.81886 -0.221833,-0.62111 -0.04436,-0.62107 0.221815,-0.79852 0.26617,-0.17744 -0.709789,-1.19774 -1.020296,-2.17375 -0.310508,-0.97601 -0.842879,-2.92793 -0.621075,-3.10538 0.221804,-0.17745 0.887245,0 1.020296,0.35489 0.133049,0.3549 0.665435,2.52865 0.665435,2.52865 0,0 -0.133094,-1.6414 0.0887,-2.12936 0.22181,-0.48796 0.48799,-0.97597 0.75416,-0.84288 0.26617,0.13309 0.13309,3.0166 0.13309,3.0166 0,0 0.26617,-0.66543 0.44361,-1.06468 0.17745,-0.39925 0.31054,-0.75416 0.53234,-0.53234 0.22181,0.22181 0.0444,2.3512 0.0444,2.3512 0,0 0.3549,-0.53234 0.62107,-0.66544 0.26619,-0.13309 0.39927,-0.22181 0.57671,0.0887 0.17745,0.31054 0.13309,0.70979 0.13309,0.70979 0,0 0.1331,-0.44363 0.44362,-0.44363 0.31053,0 0.70979,0.1331 0.57671,0.488 -0.13309,0.35489 1.19774,0.0444 1.10907,0.66543 -0.0887,0.62107 0,1.19774 0.3549,1.19774 0.35489,0 0.5767,0.48798 1.28651,0.31054 0.44362,0.26616 -0.22181,1.90753 0.0887,1.68579 0.31053,-0.22173 1.02029,-0.39926 1.28651,0.0887 0.26622,0.48798 -0.3549,1.06468 -1e-5,1.50834 0.3549,0.44367 0,0.84288 0.53235,1.19775 0.53235,0.35486 0.5767,0.0887 0.7098,0.88725 0.13309,0.79851 0.13309,1.15345 0.3549,1.46395 0.22179,0.31052 0.48798,0.53234 0.44361,1.19775 -0.0444,0.6654 -0.44361,1.28652 0.0887,1.19774 0.53234,-0.0887 0.75415,-0.62108 1.15345,-0.84288 0.3993,-0.2218 0.48798,-0.26617 1.02029,-0.66543 0.53232,-0.39926 0.62108,-0.9316 0.9316,-1.06468 0.31054,-0.13308 0.57671,-0.0887 1.0203,-0.26618 0.44359,-0.17744 0.88725,-0.5767 1.10908,-0.75415 0.22181,-0.17745 0.2218,-0.26617 0.62105,-0.62106 0.39926,-0.35489 0.79853,-0.57671 1.06469,-1.15345 0.26616,-0.57676 0.22181,-0.62108 0.53234,-1.46397 0.31053,-0.84289 0.22181,-1.10907 0.39926,-1.46396 0.17745,-0.3549 0.17745,-0.66543 0.48798,-0.97597 0.31054,-0.31054 0.57671,-0.66544 0.62108,-0.35489 0.0444,0.31053 0.0444,0.75415 0.0444,1.02029 0,0.26614 0.39925,-0.39927 0.75415,-1.06468 0.3549,-0.66542 0.17745,-0.75416 0.31054,-1.3309 0.13309,-0.57676 0,-0.97598 0.0444,-1.64141 0.0444,-0.66545 0.1331,-0.7098 0.17745,-1.6858 0.0444,-0.97601 0.12322,-1.13983 0.12322,-1.84961 0,-0.7098 -0.0258,-0.99691 -0.0345,-1.52189 0.15401,-0.40295 0.32659,-0.52616 0.44362,-0.48798 0.14414,0.0382 0.33765,0.0407 0.45349,0.57671 0.0887,0.5767 0.16876,1.00677 0.2563,2.08497 -0.0887,1.06469 -0.13309,1.99631 0.0444,2.26243 0.17745,0.26612 0.31054,0.22181 0.44362,-0.0887 0.13308,-0.31054 0.13309,-0.44362 0.31054,-0.97598 0.17744,-0.53235 0.16625,-0.88118 0.25748,-1.62417 -0.0444,-1.10907 0.008,-1.61426 0.053,-2.45721 0.0444,-0.84294 -0.005,-0.8675 0.0887,-1.37518 0.0801,-0.48062 0.19219,-0.59514 0.57671,-0.53234 0.22182,0.26616 0.26617,0.9316 0.3549,1.50834 0.0887,0.57675 0.0887,0.53235 0.13309,1.59703 0.0444,1.06468 0.006,1.48971 -0.0825,1.8446 -0.0209,0.39558 -0.0998,0.78865 -0.0506,0.95017 0.26617,-0.17744 0.26617,-0.48798 0.53234,-1.10907 0.26617,-0.62108 0.48798,-1.15345 0.57671,-1.86324 0.0887,-0.70978 0.32541,-0.96978 0.47692,-1.75103 0.35489,-0.75415 0.43257,-0.93646 0.67648,-0.95503 0.25748,0.18482 0.37951,0.3512 0.3549,0.9316 -0.1331,0.62106 -0.1331,0.9316 -0.3549,1.55263 -0.2218,0.62104 -0.17745,0.88725 -0.48799,1.55264 -0.18851,0.58409 -0.2118,0.78247 -0.31053,0.97598 0.44362,0.0444 0.43744,-0.13191 0.70978,-0.44363 0.44863,-0.85406 0.27855,-0.67411 0.44363,-0.9316 0.24641,-0.5151 0.45717,-0.70478 0.66542,-0.62106 0.22182,0.3549 0.31054,0.44361 0.13309,0.84288 -0.17744,0.39926 -0.0444,0.13308 -0.31053,0.70978 -0.26618,0.5767 -0.53234,0.79853 -0.17745,0.75416 0.35489,-0.0444 0.39927,0 0.62107,-0.35489 0.22182,-0.3549 0,-0.39927 0.48799,-0.62107 0.48798,-0.22181 0.79852,-0.62107 0.9316,-0.31054 0.13308,0.31054 0.17745,0.26617 -0.1331,0.7098 -0.31053,0.44363 -0.62106,0.57671 -0.48798,0.79852 0.13309,0.22182 0.48798,0.26617 0.75416,0.26617 0.26616,0 0.31053,0.0444 0.17744,0.48799 -0.13308,0.44362 -0.17744,0.44362 -0.22181,0.66543 -0.0444,0.22181 0.17745,0.39926 0.17745,0.39926 0,0 0.39926,-0.26617 0.0887,0.39926 -0.31055,0.66543 -0.48799,0.48798 -0.66544,0.79853 -0.17745,0.31053 -0.3549,0.62107 -0.0887,0.62107 0.26617,0 0.53234,-0.0444 0.48798,0.17744 -0.0444,0.22182 -0.44361,0.44363 -0.22181,0.57671 0.2218,0.13309 0.39926,-0.0444 0.5767,0.13309 0.17745,0.17745 0,0.48799 0,0.7098 0,0.22182 -0.0444,0.39926 0.0444,0.62108 0.0887,0.22181 0.26617,0.44361 0.13308,0.66543 -0.13307,0.22181 0.0444,0.26617 -0.31053,0.48798 -0.3549,0.22181 -0.57671,0.17744 -0.57671,0.39926 0,0.22182 -0.0444,0.17745 0.17745,0.35489 0.22181,0.17745 0.48798,0.0444 0.31053,0.44363 -0.17744,0.39925 -0.13308,0.35489 -0.2218,0.70979 -0.0887,0.35491 0.0444,0.17745 -0.3549,1.02029 -0.39925,0.84286 -0.79852,1.46397 -1.19774,1.68581 -0.39922,0.22182 -0.31053,0.70979 -0.0444,0.79851 0.26618,0.0887 0.31054,0.48799 0.0444,1.06468 -0.26618,0.5767 -0.57671,1.33091 -0.66543,1.73009 -0.0887,0.39919 -0.17744,0.44362 -0.62108,0.93161 -0.44362,0.48798 -0.79851,0.9316 -1.19774,1.06467 -0.39922,0.13308 -0.44361,0.57672 -0.70979,0.79853 -0.26616,0.22181 -0.35489,0.3549 -0.93159,0.3549 -0.57671,0 -0.57671,-0.1331 -1.15347,0.0444 -0.57674,0.17745 -0.84287,0.35489 -0.88724,0.62108 -0.0444,0.26617 -0.22181,0.39926 -0.57671,0.31053 -0.3549,-0.0887 -0.0887,0.17745 -0.53234,0.35489 -0.44362,0.17745 -0.31054,0.39927 -0.84288,0.3549 -0.53234,-0.0444 -0.79851,-0.44361 -0.9316,0 -0.13308,0.44362 -0.17745,0.79853 -0.75416,0.39926 -0.5767,-0.39926 -0.88724,-1.46396 -1.19773,-0.35489 -0.3105,1.10907 -0.31054,1.37519 0.0444,1.68579 0.3549,0.31061 0.44362,0.57671 1.24213,0.88725 0.79851,0.31054 0.79852,0.66544 1.37519,0.88724 0.57667,0.22182 0.62108,0.31055 1.50835,0.75416 0.88727,0.44362 1.10906,0.57671 1.64141,0.88724 0.53234,0.31054 0.66543,0.62108 0.79852,0.93161 0.13309,0.31052 0.7098,0.66542 0.48798,1.10907 -0.22181,0.44363 -0.66542,0.17744 -0.66542,0.39926 0,0.22181 0.0887,0.39926 -0.0887,0.84288 -0.17745,0.44361 -0.13309,0.62107 -0.75415,0.79852 -0.62107,0.17744 -0.97598,0.26617 -1.28652,0.13309 -0.31055,-0.13309 -0.39926,0.39925 -0.7098,0.26617 -0.31053,-0.13309 -0.44362,-0.53234 -0.66543,-0.31054 -0.22181,0.22181 0.17745,0.3549 -0.35489,0.48799 -0.53235,0.13308 -0.57671,-0.22182 -0.62108,0.0887 -0.0444,0.31054 0.13309,0.62107 -0.44362,0.31054 -0.5767,-0.31054 -0.39925,-0.93161 -0.84288,-0.48799 -0.44361,0.44362 -0.22181,0.97597 -1.02029,0.53235 -0.79848,-0.44364 -0.53234,-0.488 -1.15346,-0.44362 -0.62111,0.0444 -0.62107,0.0887 -0.84287,-0.39927 -0.22181,-0.48798 0.22181,-0.35489 -0.75416,-0.39926 -0.97596,-0.0444 -0.48798,0.57671 -1.10907,-0.26617 -0.62108,-0.84287 -0.75415,-1.68579 -1.02029,-0.75415 -0.26614,0.93164 0,1.15345 -0.39927,1.41957 -0.39926,0.26612 -2.43987,0.17744 -2.43987,0.17744 0,0 -0.0444,1.02031 -0.22181,1.19775 -0.17745,0.17745 -0.62107,-0.17744 -1.02029,0.17745 -0.39922,0.35489 -0.13309,0.57671 -0.48799,0.88724 -0.35489,0.31054 -1.06469,0.3549 -1.06469,0.3549 0,0 0.48799,-0.39927 0.62108,-0.75416 0.13309,-0.35489 0.31054,-0.97596 0.31054,-0.97596 0,0 -0.70979,0.26616 -1.02029,0.31053 -0.31051,0.0444 -0.79853,-0.0444 -0.79853,-0.0444 l 0.13309,1.0203 c 0,0 -0.84288,0 -0.84288,-0.35489 0,-0.3549 0.26618,-1.3309 0.48799,-1.46397 0.22181,-0.13306 0.53234,-0.0887 0.53234,-0.0887 0,0 -0.0887,-0.44362 0.13309,-0.53234 0.22181,-0.0887 0.3549,0 0.70979,0 0.3549,0 1.95192,-0.48799 1.95192,-0.48799 0,0 -0.0444,-1.15346 0.13308,-1.64141 0.17746,-0.48796 1.0203,-1.86325 0.62108,-2.08497 -0.39922,-0.22174 -0.70979,-0.0444 -0.9316,0.17744 -0.22181,0.22181 -0.62108,0.88725 -1.46397,1.06468 -0.84288,0.17744 -1.50834,0.26618 -1.50834,0.26618 0,0 -0.17745,0.0887 -0.17745,0.44361 0,0.35489 0.31054,0.70978 -0.13309,1.15345 -0.44363,0.44367 -0.79852,0.84289 -1.28652,0.62108 -0.48799,-0.2218 -0.57671,-0.48798 -0.57671,-0.48798 0,0 0.3549,0.22181 0.93161,0.0887 0.57671,-0.13309 0.35489,-1.24213 0.31053,-1.46397 -0.0444,-0.22182 -0.48798,-0.44361 -0.75415,-0.22181 -0.26617,0.2218 -0.62107,0.79853 -0.39926,1.0203 0.22181,0.22177 -0.62108,-0.48798 -0.57671,-0.79852 0.0444,-0.31054 0.17745,-0.53234 0.17745,-0.53234 0,0 -0.57671,0 -0.9316,-0.0444 -0.3549,-0.0444 -0.62108,-0.22182 -0.62108,0.0444 0,0.26617 0.17744,1.46396 -0.22181,0.70979 -0.39926,-0.75418 -0.57671,-0.9316 -0.17745,-1.33091 z"
         style="fill-rule:evenodd;stroke:#000000;stroke-width:0.12524493"
         inkscape:connector-curvature="0" />
    </g>
    <path
       id="path1389"
       style="stroke-width:1.09089851"
       d="m 33.068605,293.90398 v -27.3161 h 4.101779 v 12.30534 h 9.556272 v -12.30534 h 4.101779 v 27.3161 h -4.101779 v -12.30533 h -9.556272 v 12.30533 z"
       inkscape:connector-curvature="0" />
    <path
       id="path1393"
       style="stroke-width:1.09089851"
       d="m 76.704382,290.58765 v -23.99977 h 3.970871 l 0.829083,23.86886 h 8.159921 l 0.829083,-23.86886 h 3.970871 v 23.99977 l -3.316332,3.31633 H 79.977078 Z"
       inkscape:connector-curvature="0" />
    <path
       transform="matrix(0.55693929,0,0,0.98973373,28.093346,15.763454)"
       id="path1387"
       d="m 79.992547,281.02561 -15.942353,-6.56386 -15.942353,6.56386 7.971176,-13.80648 7.971177,-13.80648 7.971176,13.80648 z"
       style="fill:#d80037;fill-opacity:1;stroke:none;stroke-width:0.26458332;stroke-opacity:1"
       inkscape:connector-curvature="0" />
  </g>
  <g
     id="g1188">
    <path
       transform="matrix(1.1083072,0,0,1.1083072,-0.3676505,-0.30512109)"
       inkscape:original-d="M 3.5556028,2.8536782 C 4.1232241,5.1377877 2.8175035,11.391065 4.32856,12.902121"
       inkscape:path-effect="#path-effect1067"
       inkscape:connector-curvature="0"
       id="path1065"
       d="M 3.5556028,2.8536782 C 4.2198219,6.1633803 2.6601192,9.7865645 4.32856,12.902121"
       style="fill:none;stroke:#000000;stroke-width:0.27003777px;stroke-linecap:butt;stroke-linejoin:miter;stroke-opacity:1" />
    <path
       transform="matrix(1.1083072,0,0,1.1083072,-0.3676505,-0.30512109)"
       inkscape:original-d="m 3.8647858,9.3465182 c 1.4262563,0 -0.195352,0.049992 1.2367314,-0.1545915 0.6074154,-0.086774 1.550344,-0.1227872 2.16428,0 3.5330918,0.7066184 -2.7307423,5.1545393 -2.9372372,4.3285603 -0.049992,-0.199968 0,-0.412244 0,-0.618366"
       inkscape:path-effect="#path-effect1071"
       inkscape:connector-curvature="0"
       id="path1069"
       d="M 3.8647858,9.3465182 C 11.461963,6.7314201 7.2524614,14.517529 4.32856,12.902121"
       style="fill:none;stroke:#000000;stroke-width:0.27003777px;stroke-linecap:butt;stroke-linejoin:miter;stroke-opacity:1" />
    <path
       transform="matrix(1.1083072,0,0,1.1083072,-0.3676505,-0.30512109)"
       inkscape:original-d="m 11.594357,9.5011097 c -0.24607,1.1621713 -0.154591,2.3698843 -0.154591,3.5556033"
       inkscape:path-effect="#path-effect1075"
       inkscape:connector-curvature="0"
       id="path1073"
       d="M 11.594357,9.5011097 C 11.347548,10.671328 11.440185,11.871438 11.439766,13.056713"
       style="fill:none;stroke:#000000;stroke-width:0.27003777px;stroke-linecap:butt;stroke-linejoin:miter;stroke-opacity:1" />
    <path
       transform="matrix(1.1083072,0,0,1.1083072,-0.3676505,-0.30512109)"
       inkscape:original-d="M 11.285174,6.7184637 11.130583,7.9551954"
       inkscape:path-effect="#path-effect1079"
       inkscape:connector-curvature="0"
       id="path1077"
       d="m 11.285174,6.7184637 c -0.05153,0.4122439 -0.103061,0.8244878 -0.154591,1.2367317"
       style="fill:none;stroke:#000000;stroke-width:0.27003777px;stroke-linecap:butt;stroke-linejoin:miter;stroke-opacity:1" />
    <path
       transform="matrix(1.1083072,0,0,1.1083072,-0.3676505,-0.30512109)"
       inkscape:original-d="m 14.377003,7.9551954 c -4.208542,1.6660095 -1.324196,4.3353396 2.16428,2.0096885"
       inkscape:path-effect="#path-effect1087"
       inkscape:connector-curvature="0"
       id="path1085"
       d="M 14.377003,7.9551954 C 9.72836,9.7039957 14.022214,12.284841 16.541283,9.9648839"
       style="fill:none;stroke:#000000;stroke-width:0.27003777px;stroke-linecap:butt;stroke-linejoin:miter;stroke-opacity:1" />
    <path
       transform="matrix(1.1083072,0,0,1.1083072,-0.3676505,-0.30512109)"
       inkscape:original-d="m 16.077509,7.6460124 c -0.444578,1.3840213 0.490673,2.1172821 0.772957,3.2464206 0.546856,2.187423 -1.815537,3.864785 -3.710194,3.864785"
       inkscape:path-effect="#path-effect1091"
       inkscape:connector-curvature="0"
       id="path1089"
       d="m 16.077509,7.6460124 c 0.717788,3.0452696 1.766158,6.8545666 -2.937237,7.1112056"
       style="fill:none;stroke:#000000;stroke-width:0.27003777px;stroke-linecap:butt;stroke-linejoin:miter;stroke-opacity:1" />
    <path
       transform="matrix(1.1083072,0,0,1.1083072,-0.3676505,-0.30512109)"
       inkscape:original-d="M 18.705563,4.0904095 C 17.633908,6.1463207 18.550972,8.525928 18.550972,10.58325"
       inkscape:path-effect="#path-effect1095"
       inkscape:connector-curvature="0"
       id="path1093"
       d="M 18.705563,4.0904095 C 17.641845,6.152362 18.535792,8.4275534 18.550972,10.58325"
       style="fill:none;stroke:#000000;stroke-width:0.27003777px;stroke-linecap:butt;stroke-linejoin:miter;stroke-opacity:1" />
    <path
       transform="matrix(1.1083072,0,0,1.1083072,-0.3676505,-0.30512109)"
       inkscape:original-d="m 21.024435,7.9551954 c -0.366574,7.5113166 2.8626,1.9350517 2.009688,1.0821398 0,0.4637743 0,0.9275486 0,1.3913228 0,1.147256 0.324404,2.914406 -0.309183,3.864786 -1.062063,1.593094 -3.24642,3.624054 -3.24642,0"
       inkscape:path-effect="#path-effect1099"
       inkscape:connector-curvature="0"
       id="path1097"
       d="m 21.024435,7.9551954 c 0.221855,6.5264346 5.105907,-1.2339049 -0.320979,8.2946796 0,0 -0.867035,-0.203504 -0.867035,-0.203504 0,0 -0.357901,-1.752927 -0.357901,-1.752927"
       style="fill:none;stroke:#000000;stroke-width:0.27003777px;stroke-linecap:butt;stroke-linejoin:miter;stroke-opacity:1" />
    <path
       transform="matrix(1.1083072,0,0,1.1083072,-0.3676505,-0.30512109)"
       inkscape:original-d="m 29.990737,5.6363239 c -0.804837,0.010024 1.356332,6.3382491 0.92755,6.3382491 -0.61594,0 0.391495,-3.2875775 0.618364,-3.401012 0.889553,-0.4447756 1.694717,1.688926 1.700507,1.700506"
       inkscape:path-effect="#path-effect1103"
       inkscape:connector-curvature="0"
       id="path1101"
       d="m 29.990737,5.6363239 c 0.690876,6.7927551 -0.181215,5.4835791 2.727579,3.6163568 0,0 0.518842,1.0213863 0.518842,1.0213863"
       style="fill:none;stroke:#000000;stroke-width:0.27003777px;stroke-linecap:butt;stroke-linejoin:miter;stroke-opacity:1" />
    <path
       transform="matrix(1.1083072,0,0,1.1083072,-0.3676505,-0.30512109)"
       inkscape:original-d="m 35.71062,8.1097869 c 0.08471,0.7998294 -0.192702,1.778874 0.154591,2.4734631"
       inkscape:path-effect="#path-effect1107"
       inkscape:connector-curvature="0"
       id="path1105"
       d="m 35.71062,8.1097869 c 0.0915,0.8217274 -0.202186,1.6860957 0.154591,2.4734631"
       style="fill:none;stroke:#000000;stroke-width:0.27003777px;stroke-linecap:butt;stroke-linejoin:miter;stroke-opacity:1" />
    <path
       transform="matrix(1.1083072,0,0,1.1083072,-0.3676505,-0.30512109)"
       inkscape:original-d="m 35.556028,6.409281 0.309183,0.1545915"
       inkscape:path-effect="#path-effect1111"
       inkscape:connector-curvature="0"
       id="path1109"
       d="m 35.556028,6.409281 c 0.103061,0.051531 0.206122,0.103061 0.309183,0.1545915"
       style="fill:none;stroke:#000000;stroke-width:0.27003777px;stroke-linecap:butt;stroke-linejoin:miter;stroke-opacity:1" />
    <path
       transform="matrix(1.1083072,0,0,1.1083072,-0.3676505,-0.30512109)"
       inkscape:original-d="M 40.502956,7.4914209 C 36.449192,7.9946212 38.81001,10.730281 40.348364,9.1919267"
       inkscape:path-effect="#path-effect1115"
       inkscape:connector-curvature="0"
       id="path1113"
       d="M 40.502956,7.4914209 C 37.665884,7.0928545 37.655182,10.898304 40.348364,9.1919267"
       style="fill:none;stroke:#000000;stroke-width:0.27003777px;stroke-linecap:butt;stroke-linejoin:miter;stroke-opacity:1" />
    <path
       transform="matrix(1.1083072,0,0,1.1083072,-0.3676505,-0.30512109)"
       inkscape:original-d="m 40.966729,4.5541837 c -0.574556,0.5355754 -0.452173,1.0357339 -0.618365,1.7005059 -0.241548,0.9661891 -0.905777,2.6498259 -0.154591,3.4010116 0.204168,0.2041682 0.46612,0.9463248 0.463774,0.9275488 -0.05893,-0.471419 -0.206123,-0.9275488 -0.309183,-1.3913233"
       inkscape:path-effect="#path-effect1119"
       inkscape:connector-curvature="0"
       id="path1117"
       d="M 40.966729,4.5541837 C 39.188797,5.338241 40.570858,13.084652 40.348364,9.1919267"
       style="fill:none;stroke:#000000;stroke-width:0.27003777px;stroke-linecap:butt;stroke-linejoin:miter;stroke-opacity:1" />
    <path
       transform="matrix(1.1083072,0,0,1.1083072,-0.3676505,-0.30512109)"
       inkscape:original-d="M 43.440191,8.2643781 C 44.709253,6.9335253 41.277772,7.7968855 40.966729,8.4189696 40.023474,10.305481 44.864838,9.6961239 45.44988,9.5011097"
       inkscape:path-effect="#path-effect1123"
       inkscape:connector-curvature="0"
       id="path1121"
       d="M 43.440191,8.2643781 C 39.819314,6.3318335 40.145356,11.663165 45.44988,9.5011097"
       style="fill:none;stroke:#000000;stroke-width:0.27003777px;stroke-linecap:butt;stroke-linejoin:miter;stroke-opacity:1" />
    <path
       transform="matrix(1.1083072,0,0,1.1083072,-0.3676505,-0.30512109)"
       inkscape:original-d="m 51.324354,7.1822382 c 0.415904,0.360158 -0.224528,3.4709498 0.154594,3.0918288 0.121455,-0.121457 0.325447,-2.2781848 1.545912,-3.0918288 1.290465,-0.8603087 2.59546,-0.1303856 2.937239,1.2367314 0.08798,0.3519086 -0.159738,0.9172559 0,1.2367316 0.167542,0.3350871 0.309182,0.2283866 0.309182,0.6183658"
       inkscape:path-effect="#path-effect1127"
       inkscape:connector-curvature="0"
       id="path1125"
       d="M 51.324354,7.1822382 C 49.269297,13.801901 55.91308,1.7317677 56.271281,10.274067"
       style="fill:none;stroke:#000000;stroke-width:0.27003777px;stroke-linecap:butt;stroke-linejoin:miter;stroke-opacity:1" />
    <path
       transform="matrix(1.1083072,0,0,1.1083072,-0.3676505,-0.30512109)"
       inkscape:original-d="M 49.778442,5.1725494 C 49.550293,5.9218605 49.623851,6.7149919 49.623851,7.4914209"
       inkscape:path-effect="#path-effect1131"
       inkscape:connector-curvature="0"
       id="path1129"
       d="M 49.778442,5.1725494 C 49.549708,5.9326802 49.624127,6.7160351 49.623851,7.4914209"
       style="fill:none;stroke:#000000;stroke-width:0.27003777px;stroke-linecap:butt;stroke-linejoin:miter;stroke-opacity:1" />
    <path
       transform="matrix(1.1083072,0,0,1.1083072,-0.3676505,-0.30512109)"
       inkscape:original-d="m 57.662605,4.0904095 c 0.601614,0.6590626 0.772956,1.3242401 0.772956,2.1642801"
       inkscape:path-effect="#path-effect1135"
       inkscape:connector-curvature="0"
       id="path1133"
       d="m 57.662605,4.0904095 c 0.204028,0.3380912 0.719332,1.7809446 0.772956,2.1642801"
       style="fill:none;stroke:#000000;stroke-width:0.27003777px;stroke-linecap:butt;stroke-linejoin:miter;stroke-opacity:1" />
    <path
       transform="matrix(1.1083072,0,0,1.1083072,-0.3676505,-0.30512109)"
       inkscape:original-d="m 65.082994,7.4914209 c -0.678948,0.2068951 -1.549579,1.6477542 -0.463776,2.0096888 0.284179,0.094726 0.818095,0.022567 1.082141,0.1545915 0.589225,0.2946125 0.721746,0.8763378 1.082138,1.2367318 0.05153,0.05153 0.206123,0.103061 0.154592,0.154591 -0.571584,0.571585 -2.05037,0.94789 -2.628054,1.236731"
       inkscape:path-effect="#path-effect1139"
       inkscape:connector-curvature="0"
       id="path1137"
       d="M 65.082994,7.4914209 C 61.751415,9.7495747 70.907349,11.03318 64.310035,12.283755"
       style="fill:none;stroke:#000000;stroke-width:0.27003777px;stroke-linecap:butt;stroke-linejoin:miter;stroke-opacity:1" />
    <path
       transform="matrix(1.1083072,0,0,1.1083072,-0.3676505,-0.30512109)"
       inkscape:original-d="m 67.865639,9.9648839 c 0.815913,-0.1106561 1.836707,0.1091911 2.628053,-0.1545915 1.313818,-0.4379391 0.273818,-2.3070827 -1.082138,-1.855097 -1.330684,0.4435613 -2.235073,1.7722049 -0.618368,2.7826456 0.215217,0.13451 2.042887,-0.154591 2.473465,-0.154591"
       inkscape:path-effect="#path-effect1143"
       inkscape:connector-curvature="0"
       id="path1141"
       d="m 67.865639,9.9648839 c 7.43785,0.1693201 -1.831901,-4.2374621 0.927547,0.7729571 0,0 1.155972,-0.02685 1.155972,-0.02685 0,0 1.317493,-0.127737 1.317493,-0.127737"
       style="fill:none;stroke:#000000;stroke-width:0.27003777px;stroke-linecap:butt;stroke-linejoin:miter;stroke-opacity:1" />
    <path
       transform="matrix(1.1083072,0,0,1.1083072,-0.3676505,-0.30512109)"
       inkscape:original-d="m 74.513069,9.3465182 c 1.941329,0.4048633 1.502706,-2.0653797 0.463776,-1.5459143 -1.531038,0.765519 -2.927252,3.4043401 -0.618367,4.1739691 0.451757,0.150585 1.40431,0 1.855097,0 1.30364,0 -0.150384,0.03389 1.545915,-0.154592 0.602962,-0.067 1.245908,0 1.855097,0"
       inkscape:path-effect="#path-effect1147"
       inkscape:connector-curvature="0"
       id="path1145"
       d="m 74.513069,9.3465182 c 0.887349,-4.3290264 -4.16921,5.4451248 5.101518,2.4734628"
       style="fill:none;stroke:#000000;stroke-width:0.27003777px;stroke-linecap:butt;stroke-linejoin:miter;stroke-opacity:1" />
    <path
       transform="matrix(1.1083072,0,0,1.1083072,-0.3676505,-0.30512109)"
       inkscape:original-d="m 80.696729,5.6363239 c 0.179586,0.7183496 0.154591,0.4058999 0.154591,0.9275486 0,0.4750577 -0.219914,1.5698659 0,2.0096885 0.57278,1.1455621 1.23673,2.581739 1.23673,3.710194"
       inkscape:path-effect="#path-effect1151"
       inkscape:connector-curvature="0"
       id="path1149"
       d="m 80.696729,5.6363239 c -0.190953,2.4785982 0.900263,4.2998577 1.391321,6.6474311"
       style="fill:none;stroke:#000000;stroke-width:0.27003777px;stroke-linecap:butt;stroke-linejoin:miter;stroke-opacity:1" />
    <path
       transform="matrix(1.1083072,0,0,1.1083072,-0.3676505,-0.30512109)"
       inkscape:original-d="M 81.624276,9.0373352 C 81.963622,7.8870794 82.88212,6.6973522 83.633964,5.9455066"
       inkscape:path-effect="#path-effect1155"
       inkscape:connector-curvature="0"
       id="path1153"
       d="m 81.624276,9.0373352 c 0.283386,-0.565106 1.623178,-2.6263251 2.009688,-3.0918286"
       style="fill:none;stroke:#000000;stroke-width:0.27003777px;stroke-linecap:butt;stroke-linejoin:miter;stroke-opacity:1" />
    <path
       transform="matrix(1.1083072,0,0,1.1083072,-0.3676505,-0.30512109)"
       inkscape:original-d="m 81.624276,9.0373352 c 0.309182,0.412244 0.563174,0.8723562 0.92755,1.2367318 0.350714,0.350716 1.843299,0.36866 2.318871,0.463774 0.814769,0.162954 1.824407,0.814258 2.628053,1.08214"
       inkscape:path-effect="#path-effect1159"
       inkscape:connector-curvature="0"
       id="path1157"
       d="m 81.624276,9.0373352 c 0.843312,2.7299208 4.389969,0.743407 5.874474,2.7826458"
       style="fill:none;stroke:#000000;stroke-width:0.27003777px;stroke-linecap:butt;stroke-linejoin:miter;stroke-opacity:1" />
  </g>
  <text
     xml:space="preserve"
     style="font-style:normal;font-weight:normal;font-size:10.80151081px;line-height:1.25;font-family:sans-serif;letter-spacing:0px;word-spacing:0px;fill:#000000;fill-opacity:1;stroke:none;stroke-width:0.27003777"
     x="17.314241"
     y="34.390327"
     id="text1163"><tspan
       sodipodi:role="line"
       id="tspan1161"
       x="17.314241"
       y="44.32254"
       style="stroke-width:0.27003777" /></text>
</svg>
